<?xml version="1.0" encoding="UTF-8" standalone="no"?>
<!-- Created with Inkscape (http://www.inkscape.org/) -->

<svg
   xmlns:dc="http://purl.org/dc/elements/1.1/"
   xmlns:cc="http://creativecommons.org/ns#"
   xmlns:rdf="http://www.w3.org/1999/02/22-rdf-syntax-ns#"
   xmlns:svg="http://www.w3.org/2000/svg"
   xmlns="http://www.w3.org/2000/svg"
   xmlns:sodipodi="http://sodipodi.sourceforge.net/DTD/sodipodi-0.dtd"
   xmlns:inkscape="http://www.inkscape.org/namespaces/inkscape"
   width="600"
   height="600"
   viewBox="0 0 158.75 158.75"
   version="1.1"
   id="svg8"
   inkscape:version="0.92.4 5da689c313, 2019-01-14"
   sodipodi:docname="health-circle.svg">
  <defs
     id="defs2" />
  <sodipodi:namedview
     id="base"
     pagecolor="#ffffff"
     bordercolor="#666666"
     borderopacity="1.0"
     inkscape:pageopacity="0.0"
     inkscape:pageshadow="2"
     inkscape:zoom="0.98994949"
     inkscape:cx="398.95867"
     inkscape:cy="363.97233"
     inkscape:document-units="px"
     inkscape:current-layer="layer1"
     showgrid="false"
     units="px"
     inkscape:pagecheckerboard="true"
     inkscape:window-width="1914"
     inkscape:window-height="1026"
     inkscape:window-x="3840"
     inkscape:window-y="24"
     inkscape:window-maximized="0"
     inkscape:snap-bbox="true"
     inkscape:bbox-paths="true"
     inkscape:bbox-nodes="true"
     inkscape:snap-bbox-edge-midpoints="true"
     inkscape:snap-bbox-midpoints="true"
     inkscape:object-paths="true"
     inkscape:snap-intersection-paths="true"
     inkscape:snap-smooth-nodes="true"
     inkscape:snap-midpoints="true"
     inkscape:snap-object-midpoints="true"
     inkscape:snap-center="true"
     inkscape:snap-text-baseline="true"
     inkscape:snap-page="true"
     inkscape:snap-global="true"
     showguides="true"
     inkscape:guide-bbox="true">
    <sodipodi:guide
       position="79.375,79.375005"
       orientation="1,0"
       id="guide836"
       inkscape:locked="false" />
    <sodipodi:guide
       position="79.375,79.375005"
       orientation="0,1"
       id="guide838"
       inkscape:locked="false" />
  </sodipodi:namedview>
  <metadata
     id="metadata5">
    <rdf:RDF>
      <cc:Work
         rdf:about="">
        <dc:format>image/svg+xml</dc:format>
        <dc:type
           rdf:resource="http://purl.org/dc/dcmitype/StillImage" />
        <dc:title></dc:title>
      </cc:Work>
    </rdf:RDF>
  </metadata>
  <g
     inkscape:label="Layer 1"
     inkscape:groupmode="layer"
     id="layer1"
     transform="translate(0,-138.24999)">
    <circle
       style="display:inline;opacity:1;fill:#4b4b4b;fill-opacity:0.3798627;stroke:none;stroke-width:3.64747024;stroke-linecap:square;stroke-linejoin:miter;stroke-miterlimit:4;stroke-dasharray:none;stroke-dashoffset:0;stroke-opacity:1;paint-order:normal"
       id="path834"
       cx="79.375"
       cy="217.62498"
       r="72.949402"
       inkscape:label="under"
       inkscape:export-xdpi="104.45596"
       inkscape:export-ydpi="104.45596" />
    <path
       style="display:inline;opacity:1;fill:#6c6c6c;fill-opacity:1;stroke:none;stroke-width:15.06586933;stroke-linecap:square;stroke-linejoin:miter;stroke-miterlimit:4;stroke-dasharray:none;stroke-dashoffset:0;stroke-opacity:1;paint-order:normal"
       d="M 300,24.285156 A 275.71428,275.71428 0 0 0 24.285156,300 275.71428,275.71428 0 0 0 300,575.71484 275.71428,275.71428 0 0 0 575.71484,300 275.71428,275.71428 0 0 0 300,24.285156 Z m 0,54.492188 A 221.22341,221.22341 0 0 1 521.22266,300 221.22341,221.22341 0 0 1 300,521.22266 221.22341,221.22341 0 0 1 78.777344,300 221.22341,221.22341 0 0 1 300,78.777344 Z"
       id="path840"
       inkscape:connector-curvature="0"
       transform="matrix(0.26458333,0,0,0.26458333,0,138.24999)"
       inkscape:label="emptybar"
       inkscape:export-xdpi="104.45596"
       inkscape:export-ydpi="104.45596" />
    <path
       transform="matrix(0.26458333,0,0,0.26458333,0,138.24999)"
       inkscape:connector-curvature="0"
       id="path851"
       d="M 300,24.285156 A 275.71428,275.71428 0 0 0 24.285156,300 275.71428,275.71428 0 0 0 300,575.71484 275.71428,275.71428 0 0 0 575.71484,300 275.71428,275.71428 0 0 0 300,24.285156 Z m 0,54.492188 A 221.22341,221.22341 0 0 1 521.22266,300 221.22341,221.22341 0 0 1 300,521.22266 221.22341,221.22341 0 0 1 78.777344,300 221.22341,221.22341 0 0 1 300,78.777344 Z"
       style="display:none;opacity:1;fill:#85ff88;fill-opacity:1;stroke:none;stroke-width:15.06586933;stroke-linecap:square;stroke-linejoin:miter;stroke-miterlimit:4;stroke-dasharray:none;stroke-dashoffset:0;stroke-opacity:1;paint-order:normal"
       inkscape:label="progress"
       inkscape:export-xdpi="104.45596"
       inkscape:export-ydpi="104.45596" />
  </g>
</svg>
